<svg width="683" height="682" viewBox="0 0 683 682" fill="none" xmlns="http://www.w3.org/2000/svg">
<path d="M392.533 2.13329C386 4.39996 378.4 11.6 375.2 18.5333C373.867 21.3333 372.933 26.4 372.933 30.6666C372.933 43.7333 379.333 53.8666 390.667 59.2C396.533 62 398.4 62 486.4 62.6666L576 63.3333L415.2 224C318.933 320.267 253.333 386.8 251.6 390C246 400.533 248.267 414.933 257.2 424.4C266 434 281.733 436.933 292.667 431.067C295.867 429.333 362.4 363.733 458.667 267.467L619.333 106.667L620 196.267C620.667 279.067 620.8 286.4 623.067 291.333C628.267 302.933 639.067 309.733 652 309.733C660.667 309.733 667.2 306.933 673.867 300.4C683.2 291.067 682.8 297.867 682.4 152.533L682 21.7333L678 15.2C675.467 11.2 671.467 7.19996 667.467 4.66663L660.933 0.666628L529.467 0.399961C416.667 0.266628 397.2 0.399961 392.533 2.13329Z" fill="#F7F7F7"/>
<path d="M21.067 126C13.7337 128.667 8.13366 133.333 4.26699 140L0.666992 146V403.467V660.933L4.66699 667.467C7.20033 671.467 11.2003 675.467 15.2003 678L21.7337 682H279.2H536.667L542.8 678.4C549.6 674.4 555.067 667.2 557.334 659.333C558.4 655.467 558.667 609.867 558.4 493.333L558 332.667L555.067 327.333C551.467 320.533 547.467 316.8 540 313.467C521.867 305.2 501.067 316.267 497.334 336.133C496.534 340.4 496 396.4 496 481.467V620H279.334H62.667V403.333V186.667H201.2C286.267 186.667 342.267 186.133 346.534 185.333C366.4 181.6 377.467 160.8 369.2 142.667C365.867 135.2 362.134 131.2 355.334 127.6L350 124.667L188 124.4C53.867 124.267 25.2003 124.533 21.067 126Z" fill="#F7F7F7"/>
</svg>
