<svg width="1033" height="814" viewBox="0 0 1033 814" fill="none" xmlns="http://www.w3.org/2000/svg">
<path d="M244 184C263.786 145.837 339.887 77.4391 486 109.157" stroke="#000F22" stroke-width="4" stroke-linecap="round" stroke-dasharray="8 8"/>
<path d="M761 418C775.232 453.031 777.546 542.942 672.942 622.333" stroke="#000F22" stroke-width="4" stroke-linecap="round" stroke-dasharray="8 8"/>
<path d="M543.205 437C530.729 496.417 458.965 613.445 271.708 606.216" stroke="#000F22" stroke-width="4" stroke-linecap="round" stroke-dasharray="8 8"/>
<path fill-rule="evenodd" clip-rule="evenodd" d="M153.5 206C93.5537 206 45 254.405 45 314.168C45 362.033 76.0581 402.461 119.187 416.793C124.612 417.74 126.646 414.495 126.646 411.655C126.646 409.086 126.511 400.568 126.511 391.509C99.25 396.512 92.1975 384.884 90.0275 378.799C88.8069 375.689 83.5175 366.089 78.9062 363.52C75.1087 361.492 69.6838 356.489 78.7706 356.354C87.315 356.219 93.4181 364.196 95.4525 367.441C105.218 383.802 120.814 379.205 127.053 376.365C128.003 369.334 130.851 364.602 133.97 361.898C109.829 359.194 84.6025 349.864 84.6025 308.49C84.6025 296.726 88.8069 286.991 95.7238 279.419C94.6388 276.715 90.8412 265.628 96.8088 250.755C96.8088 250.755 105.896 247.915 126.646 261.842C135.326 259.408 144.549 258.191 153.771 258.191C162.994 258.191 172.216 259.408 180.896 261.842C201.647 247.78 210.734 250.755 210.734 250.755C216.701 265.628 212.904 276.715 211.819 279.419C218.736 286.991 222.94 296.591 222.94 308.49C222.94 349.999 197.578 359.194 173.437 361.898C177.37 365.278 180.761 371.768 180.761 381.909C180.761 396.377 180.625 408.005 180.625 411.655C180.625 414.495 182.659 417.875 188.084 416.793C230.942 402.461 262 361.898 262 314.168C262 254.405 213.446 206 153.5 206Z" fill="white"/>
<path d="M225.515 621.108C224.556 618.603 221.676 617.446 219.373 618.409C217.646 619.181 216.494 620.916 216.494 622.651C216.494 623.229 216.494 623.808 216.878 624.193C221.293 635.953 223.787 648.677 223.787 662.171C223.787 716.73 183.291 762.035 130.703 768.782V718.465C133.965 717.887 137.036 716.922 140.107 715.96V758.179C182.907 747.768 214.958 708.826 214.958 662.171C214.958 624.964 194.422 592.383 164.098 575.611C161.796 574.262 158.916 575.226 157.764 577.732C157.381 578.311 157.381 579.081 157.381 579.853C157.381 581.587 158.34 583.129 159.683 583.901C187.129 599.131 205.746 628.628 205.746 662.364C205.746 700.343 182.331 732.731 149.127 745.84V708.44C154.886 706.705 159.108 701.307 159.108 694.752C159.108 689.355 156.421 684.92 152.007 682.414C155.269 650.026 170.048 658.702 170.048 648.292V642.314C170.048 626.892 134.541 576.574 117.843 575.418H114.773C98.0748 576.575 62.5687 626.892 62.5687 642.314V648.291C62.5687 658.508 77.1549 650.025 80.6098 682.413C76.3867 684.919 73.6999 689.546 73.6999 694.752C73.6999 701.114 77.923 706.511 83.6807 708.439V745.84C50.6693 732.73 27.0617 700.342 27.0617 662.363C27.0617 628.627 45.6789 599.13 73.1247 583.9C75.2363 582.744 76.1955 580.045 75.0433 577.731C74.469 575.997 72.7406 575.033 71.0131 575.033C70.2459 575.033 69.4777 575.225 68.7104 575.611C38.3858 592.383 17.8482 624.964 17.8482 662.171C17.8482 708.826 49.9002 747.768 93.0835 758.371V716.152C96.1544 717.115 99.2252 718.08 102.488 718.658V768.975C49.9011 762.035 9.40464 716.922 9.40464 662.171C9.40464 648.869 11.8994 636.146 16.3136 624.193C17.2739 621.88 16.1225 619.181 13.8189 618.216C13.2428 618.024 12.6676 617.832 12.0914 617.832C10.1719 617.832 8.44443 618.988 7.67717 620.916C2.68678 633.832 0 647.713 0 662.171C0 725.213 49.517 776.493 111.702 779V719.815C113.429 720.007 116.5 720.007 116.5 720.007C116.5 720.007 119.571 720.007 121.298 719.815V779C183.483 776.493 233 725.213 233 662.171C232.809 647.713 230.313 633.832 225.515 621.108ZM137.996 687.813C139.724 686.077 142.026 684.92 144.713 684.92C147.401 684.92 149.703 686.077 151.43 687.813C153.158 689.547 154.31 691.861 154.31 694.56C154.31 697.258 153.158 699.572 151.431 701.307C149.703 703.043 147.401 704.199 144.714 704.199C142.026 704.199 139.724 703.043 137.996 701.307C136.269 699.572 135.117 697.258 135.117 694.561C135.117 691.861 136.269 689.547 137.996 687.813ZM95.0039 701.307C93.2765 703.043 90.9738 704.199 88.287 704.199C85.5993 704.199 83.2966 703.043 81.57 701.307C79.6496 699.572 78.6903 697.258 78.6903 694.561C78.6903 691.861 79.8416 689.547 81.5691 687.813C83.2966 686.077 85.5993 684.92 88.2861 684.92C90.9738 684.92 93.2765 686.077 95.0039 687.813C96.7314 689.547 97.8828 691.861 97.8828 694.56C97.6916 697.258 96.7314 699.572 95.0039 701.307Z" fill="#128379"/>
<path d="M549.489 625.288C539.369 628.938 532 639.79 532 650.84C532 658.535 535.734 666.723 541.334 671.261L545.166 674.32V718.912V763.504L541.334 766.562C532.59 773.566 529.642 787.181 534.358 798.131C541.727 815.199 565.603 819.54 578.179 806.024C586.629 797.145 588.299 785.405 582.699 774.553C579.653 768.634 579.555 768.338 581.225 766.463C584.959 762.418 590.461 760.643 601.662 759.755C607.557 759.36 615.221 758.078 618.659 757.091C638.212 750.876 651.279 732.625 653.932 707.566C654.522 701.943 654.915 701.055 658.747 697.504C664.642 692.078 667 686.454 667 677.97C667 669.584 664.347 663.468 658.255 657.943C652.753 652.912 648.037 651.136 640.472 651.136C633.004 651.136 628.19 652.912 622.786 657.844C614.926 664.947 611.978 673.629 613.943 683.297C615.122 689.118 620.624 697.701 624.555 699.773C626.225 700.759 626.716 701.844 626.716 705.1C626.716 718.122 617.48 730.356 606.771 731.638C604.511 731.835 598.321 732.526 593.114 733.118C587.808 733.71 581.225 735.091 578.376 736.176C575.526 737.261 573.07 738.149 572.972 738.149C572.775 738.149 572.677 723.844 572.677 706.382V674.714L576.509 671.36C578.67 669.584 581.618 665.539 583.092 662.481C589.576 649.261 584.172 633.181 571.203 626.472C566.094 623.808 555.09 623.118 549.489 625.288ZM566.389 639.396C569.729 641.468 572.677 646.795 572.677 650.84C572.677 654.391 570.417 658.436 566.585 661.692C563.834 664.06 562.852 664.356 558.234 663.961C545.657 662.876 541.138 648.965 550.57 640.58C553.419 638.113 554.893 637.521 558.725 637.521C561.476 637.521 564.522 638.311 566.389 639.396ZM645.777 665.539C653.146 668.598 656.29 679.252 651.672 685.566C648.725 689.611 643.714 691.979 639.096 691.387C625.537 689.71 622.491 672.149 634.675 665.934C638.703 663.764 641.454 663.764 645.777 665.539ZM567.371 776.723C572.677 781.656 573.954 786.983 571.105 793.001C567.469 800.598 556.956 802.867 550.668 797.342C544.478 791.818 543.79 784.517 548.9 778.499C552.142 774.553 554.5 773.566 560.199 774.06C563.441 774.257 565.603 775.046 567.371 776.723Z" fill="black"/>
<path fill-rule="evenodd" clip-rule="evenodd" d="M604.5 259C604.5 266.667 604.5 275.833 604.5 283.5C604.175 294.509 604.008 305.509 604 316.5C604.833 317.333 605.667 318.167 606.5 319C703.5 319.667 800.5 319.667 897.5 319C898 318.5 898.5 318 899 317.5C899 308.5 899 299 899 290C901 290 903.5 290 905.5 290C905.5 299 905.5 309 905.5 318C905.181 321.473 904.181 324.806 901.5 327C902.094 327.464 896.761 328.631 897.5 328.5C898.768 330.67 900 331 903 333.5C904.473 334.21 905.64 335.876 905.5 337.5C900.853 335.175 896.52 332.341 892.5 329C885.833 328.333 879.167 328.333 872.5 329C873.016 331.033 872.35 331.033 870.5 329C863.833 328.333 857.167 328.333 850.5 329C851.833 330.333 853.167 331.667 854.5 333C852.033 332.32 849.7 330.986 847.5 329C841.167 328.333 834.833 328.333 828.5 329C829.743 330.154 830.743 331.488 831.5 333C831 333.167 830.5 333.333 830 333.5C826.507 329.015 821.841 327.348 816 328.5C812.833 328.833 809.667 329.167 806.5 329.5C807.04 330.748 807.707 331.915 808.5 333C808 333.167 807.5 333.333 807 333.5C805.48 332.303 804.313 330.803 803.5 329C797.175 328.5 790.842 328.334 784.5 328.5C784.286 330.144 784.62 331.644 785.5 333C784.552 333.483 783.552 333.649 782.5 333.5C782.579 332.07 782.246 330.736 781.5 329.5C774.866 328.503 768.2 328.17 761.5 328.5C760.833 335.167 760.167 335.167 759.5 328.5C752.833 328.5 746.167 328.5 739.5 328.5C739.5 330.167 739.5 331.833 739.5 333.5C738.5 333.5 737.5 333.5 736.5 333.5C736.286 331.856 736.62 330.356 737.5 329C730.808 328.169 724.142 328.336 717.5 329.5C716.754 330.736 716.421 332.07 716.5 333.5C715.5 333.5 714.5 333.5 713.5 333.5C713.297 331.61 713.963 330.11 715.5 329C708.833 328.333 702.167 328.333 695.5 329C693.963 330.11 693.297 331.61 693.5 333.5C689.921 333.234 689.587 331.901 692.5 329.5C686.193 328.336 679.859 328.169 673.5 329C671.978 330.522 670.478 332.022 669 333.5C668.5 333.167 668 332.833 667.5 332.5C668.263 331.281 669.263 330.281 670.5 329.5C664.193 328.336 657.859 328.169 651.5 329C649.359 330.308 647.359 331.808 645.5 333.5C644.479 332.998 644.312 332.332 645 331.5C646.255 330.789 647.421 329.956 648.5 329C634.14 329.14 619.807 329.306 605.5 329.5C603.5 329.5 603.201 329.566 601 328.5C599.5 328 597 325 597 322.5L598 259H604.5Z" fill="#0E0E0D"/>
<path d="M604 318.475L604.5 260.905L606.5 119H766H893.5L896.5 119.5V122.341V155.36L899 291.71V319.99L897.5 321H606.5L604 318.475Z" fill="#292929"/>
<path fill-rule="evenodd" clip-rule="evenodd" d="M766 112.5C809 112.5 851 113 893.5 113C898 113 902.5 116.098 902.5 120C902.5 131.5 902.5 144 902.5 155C900.5 155 898.5 155 896.5 155C896.5 144.5 896.5 132.5 896.5 122.5C896.5 119.5 894.797 119 892.5 119C852 119 814 119 772.5 119C771.5 119 768.5 119 766 119C766 116.5 766 114.5 766 112.5Z" fill="#0E0E0D"/>
<path fill-rule="evenodd" clip-rule="evenodd" d="M905.5 337.5C908.714 341.88 912.714 345.38 917.5 348C916.906 348.464 916.239 348.631 915.5 348.5C908.159 348.666 900.826 348.5 893.5 348C892.234 346.017 890.568 345.017 888.5 345C889.357 345.689 890.023 346.522 890.5 347.5C882.855 348.665 875.188 348.831 867.5 348C866.778 345.259 865.112 344.259 862.5 345C863.357 345.689 864.023 346.522 864.5 347.5C856.855 348.665 849.188 348.831 841.5 348C840.845 346.513 839.845 345.347 838.5 344.5C837.41 345.391 837.41 346.391 838.5 347.5C830.833 348.833 823.167 348.833 815.5 347.5C814.616 345.058 812.949 344.225 810.5 345C811.357 345.689 812.023 346.522 812.5 347.5C770.504 348.667 728.504 348.833 686.5 348C687.337 346.989 687.67 345.822 687.5 344.5C685.41 344.45 684.077 345.45 683.5 347.5C675.833 348.833 668.167 348.833 660.5 347.5C661.59 346.391 661.59 345.391 660.5 344.5C659.155 345.347 658.155 346.513 657.5 348C649.812 348.831 642.145 348.665 634.5 347.5C634.977 346.522 635.643 345.689 636.5 345C636 344.833 635.5 344.667 635 344.5C633.726 345.535 632.56 346.702 631.5 348C623.812 348.831 616.145 348.665 608.5 347.5C608.977 346.522 609.643 345.689 610.5 345C608.432 345.017 606.766 346.017 605.5 348C597.841 348.5 590.174 348.666 582.5 348.5C589.29 341.037 596.957 334.704 605.5 329.5C619.807 329.306 634.14 329.14 648.5 329C647.421 329.956 646.255 330.789 645 331.5C644.312 332.332 644.479 332.998 645.5 333.5C647.359 331.808 649.359 330.308 651.5 329C657.859 328.169 664.193 328.336 670.5 329.5C669.263 330.281 668.263 331.281 667.5 332.5C668 332.833 668.5 333.167 669 333.5C670.478 332.022 671.978 330.522 673.5 329C679.859 328.169 686.193 328.336 692.5 329.5C689.587 331.901 689.921 333.234 693.5 333.5C693.297 331.61 693.963 330.11 695.5 329C702.167 328.333 708.833 328.333 715.5 329C713.963 330.11 713.297 331.61 713.5 333.5C714.5 333.5 715.5 333.5 716.5 333.5C716.421 332.07 716.754 330.736 717.5 329.5C724.142 328.336 730.808 328.169 737.5 329C736.62 330.356 736.286 331.856 736.5 333.5C737.5 333.5 738.5 333.5 739.5 333.5C739.5 331.833 739.5 330.167 739.5 328.5C746.167 328.5 752.833 328.5 759.5 328.5C760.167 335.167 760.833 335.167 761.5 328.5C768.2 328.17 774.866 328.503 781.5 329.5C782.246 330.736 782.579 332.07 782.5 333.5C783.552 333.649 784.552 333.483 785.5 333C784.62 331.644 784.286 330.144 784.5 328.5C790.842 328.334 797.175 328.5 803.5 329C804.313 330.803 805.48 332.303 807 333.5C807.5 333.333 808 333.167 808.5 333C807.707 331.915 807.04 330.748 806.5 329.5C809.667 329.167 812.833 328.833 816 328.5C821.841 327.348 826.507 329.015 830 333.5C830.5 333.333 831 333.167 831.5 333C830.743 331.488 829.743 330.154 828.5 329C834.833 328.333 841.167 328.333 847.5 329C849.7 330.986 852.033 332.32 854.5 333C853.167 331.667 851.833 330.333 850.5 329C857.167 328.333 863.833 328.333 870.5 329C872.35 331.033 873.016 331.033 872.5 329C879.167 328.333 885.833 328.333 892.5 329C896.52 332.341 900.853 335.175 905.5 337.5Z" fill="#2F2F2D"/>
<path fill-rule="evenodd" clip-rule="evenodd" d="M915 348.5C915 349.5 915 350.5 915 351.5C881 351.5 847 351.5 813 351.5C773.071 350.34 812.071 350.173 772 351C766.5 351 769 356 763.5 361.5C763.5 363.5 754.5 364 748.5 365C691.834 365.5 639.668 364.667 583 364.5C581 363.5 580.327 361.475 582 361C586.494 359.725 587.494 358.059 591 355C591.837 353.989 592.17 352.822 592 351.5C588.667 351.5 585.333 351.5 582 351.5C582 350.5 582 349.5 582 348.5C589.674 348.666 597.341 348.5 605 348C606.266 346.017 607.932 345.017 610 345C609.143 345.689 608.477 346.522 608 347.5C615.645 348.665 623.312 348.831 631 348C632.06 346.702 633.226 345.535 634.5 344.5C635 344.667 635.5 344.833 636 345C635.143 345.689 634.477 346.522 634 347.5C641.645 348.665 649.312 348.831 657 348C657.655 346.513 658.655 345.347 660 344.5C661.09 345.391 661.09 346.391 660 347.5C667.667 348.833 675.333 348.833 683 347.5C683.577 345.45 684.91 344.45 687 344.5C687.17 345.822 686.837 346.989 686 348C728.004 348.833 770.004 348.667 812 347.5C811.523 346.522 810.857 345.689 810 345C812.449 344.225 814.116 345.058 815 347.5C822.667 348.833 830.333 348.833 838 347.5C836.91 346.391 836.91 345.391 838 344.5C839.345 345.347 840.345 346.513 841 348C848.688 348.831 856.355 348.665 864 347.5C863.523 346.522 862.857 345.689 862 345C864.612 344.259 866.278 345.259 867 348C874.688 348.831 882.355 348.665 890 347.5C889.523 346.522 888.857 345.689 888 345C890.068 345.017 891.734 346.017 893 348C900.326 348.5 907.659 348.666 915 348.5Z" fill="#161719"/>
<path opacity="0.994" fill-rule="evenodd" clip-rule="evenodd" d="M547.5 362.5C548.635 364.213 550.302 364.88 552.5 364.5C683.5 364.5 813 364.5 943.5 364.5C946.57 364.632 949.57 364.299 952.5 363.5C952.665 366.85 952.498 370.183 952 373.5C950.601 374.227 949.101 374.727 947.5 375C815.5 375.667 683.5 375.667 551.5 375C549.899 374.727 548.399 374.227 547 373.5C546.19 369.642 546.357 365.976 547.5 362.5Z" fill="#161715"/>
<path fill-rule="evenodd" clip-rule="evenodd" d="M902 326.5C909.368 330.356 917.868 335.856 924.5 341C931.989 346.911 939.655 352.577 947.5 358C949.373 359.704 951.04 361.537 952.5 363.5C949.57 364.299 946.57 364.632 943.5 364.5C900.154 365.161 781.5 365 739 365C740.478 365.262 765 363 765.5 361C763.82 357.64 815.153 354.807 813.5 351.5C847.5 351.5 881.5 351.5 915.5 351.5C915.5 350.5 915.5 349.5 915.5 348.5C916.239 348.631 916.906 348.464 917.5 348C912.714 345.38 908.714 341.88 905.5 337.5C905.64 335.876 898 330 897.5 328.5C899.5 327.5 901 327.5 902 326.5Z" fill="#31343B"/>
<path fill-rule="evenodd" clip-rule="evenodd" d="M598.5 327.5C600.701 328.566 603.035 329.233 605.5 329.5C596.957 334.704 589.29 341.037 582.5 348.5C582.5 349.5 582.5 350.5 582.5 351.5C585.833 351.5 589.167 351.5 592.5 351.5C592.67 352.822 592.337 353.989 591.5 355C587.994 358.059 587 359.5 583 361.5C582 362.5 582.235 363.521 583.5 364.5C573.167 364.5 562.833 364.5 552.5 364.5C550.302 364.88 548.635 364.213 547.5 362.5C562.03 350.48 577.03 338.98 592.5 328C594.473 327.505 596.473 327.338 598.5 327.5Z" fill="#1F2834"/>
<path fill-rule="evenodd" clip-rule="evenodd" d="M813.5 351.5C815.153 354.807 816.82 358.14 818.5 361.5C817.311 362.429 815.978 362.762 814.5 362.5C772.167 362.5 729.833 362.5 687.5 362.5C688.468 358.073 690.468 354.239 693.5 351C733.571 350.173 773.571 350.34 813.5 351.5Z" fill="#3B3B39"/>
<path fill-rule="evenodd" clip-rule="evenodd" d="M801.169 177C856.759 177 912.348 177 967.938 177C968.104 212.511 967.938 248.021 967.441 283.529C966.661 286.598 965.953 288.507 961.982 290H905.896H898.947H865.693H809.11C806.668 288.548 802.658 286.487 801.169 283.5V196.912V177Z" fill="#D9DADC"/>
<path fill-rule="evenodd" clip-rule="evenodd" d="M892.5 192.5C896.286 193.145 899.62 194.645 902.5 197C893.52 222.107 884.854 247.273 876.5 272.5C872.558 272.246 869.225 270.746 866.5 268C875.474 242.91 884.141 217.744 892.5 192.5Z" fill="#093286"/>
<path fill-rule="evenodd" clip-rule="evenodd" d="M853.5 264.5C841.521 254.521 830.521 243.521 820.5 231.5C830.938 221.563 841.272 211.396 851.5 201C854.82 201.265 857.487 202.931 859.5 206C850.767 214.733 842.1 223.4 833.5 232C841.308 240.809 849.475 249.309 858 257.5C858.667 258.167 858.667 258.833 858 259.5C856.293 261.037 854.793 262.704 853.5 264.5Z" fill="#093083"/>
<path fill-rule="evenodd" clip-rule="evenodd" d="M917.5 199.5C929.247 209.743 940.58 220.577 951.5 232C940.653 243.014 929.653 253.848 918.5 264.5C915.58 262.778 913.747 260.445 913 257.5C921.543 249.291 929.71 240.791 937.5 232C929.71 223.209 921.543 214.709 913 206.5C912.333 205.833 912.333 205.167 913 204.5C914.707 202.963 916.207 201.296 917.5 199.5Z" fill="#09348A"/>
<path fill-rule="evenodd" clip-rule="evenodd" d="M807.997 155.063C857.98 154.896 907.961 155.063 957.942 155.563C959.759 155.581 961.94 155.563 961.94 155.563C961.94 155.563 964.439 156 964.939 156.5C966.574 157.749 967.241 159.131 967.938 161.215V177.063C912.292 177.063 856.646 177.063 801 177.063C801 172.063 801 167.063 801 162.063C802.333 158.73 804.666 156.396 807.997 155.063Z" fill="#01338C"/>
<circle cx="928.5" cy="166.5" r="4.5" fill="#03D10F"/>
<circle cx="941.5" cy="166.5" r="4.5" fill="#E7C508"/>
<circle cx="954.5" cy="166.5" r="4.5" fill="#FA263C"/>
<path d="M548 109H775V252C775 257.523 770.523 262 765 262H558C552.477 262 548 257.523 548 252V109Z" fill="#132247"/>
<path d="M548 84C548 78.4772 552.477 74 558 74H765C770.523 74 775 78.4772 775 84V109H548V84Z" fill="#03358E"/>
<circle cx="710.5" cy="91.5" r="7.5" fill="#03D10F"/>
<circle cx="731.5" cy="91.5" r="7.5" fill="#E7C508"/>
<circle cx="753.5" cy="91.5" r="7.5" fill="#FA263C"/>
<rect x="566" y="121" width="96" height="11" rx="5.5" fill="#758AE8"/>
<rect x="659" y="239" width="37" height="11" rx="5.5" fill="#4C9EE1"/>
<rect x="566" y="239" width="80" height="11" rx="5.5" fill="#758AE8"/>
<rect x="566" y="217" width="108" height="11" rx="5.5" fill="#16D713"/>
<rect x="633" y="194" width="80" height="11" rx="5.5" fill="#E9B501"/>
<rect x="566" y="194" width="52" height="11" rx="5.5" fill="#FA5787"/>
<rect x="700" y="171" width="66" height="11" rx="5.5" fill="#1AD51C"/>
<rect x="566" y="171" width="114" height="11" rx="5.5" fill="#59A6E6"/>
<rect x="655" y="144" width="69" height="11" rx="5.5" fill="#FD5989"/>
<rect x="566" y="144" width="72" height="11" rx="5.5" fill="#DBAC10"/>
</svg>
