<svg width="91" height="89" viewBox="0 0 91 89" fill="none" xmlns="http://www.w3.org/2000/svg">
<g clip-path="url(#clip0_293_36)">
<path fill-rule="evenodd" clip-rule="evenodd" d="M45.7472 0C20.6619 0 0.382812 20.3958 0.382812 45.6283C0.382812 65.7979 13.3763 82.8711 31.4017 88.9138C33.6554 89.3681 34.4809 87.932 34.4809 86.724C34.4809 85.6662 34.4066 82.0404 34.4066 78.2625C21.7873 80.9826 19.1595 72.8233 19.1595 72.8233C17.1315 67.5352 14.1266 66.1761 14.1266 66.1761C9.99631 63.381 14.4275 63.381 14.4275 63.381C19.009 63.6832 21.4131 68.0646 21.4131 68.0646C25.4682 75.014 32.0025 73.0505 34.6313 71.8415C35.0065 68.8953 36.209 66.8557 37.4857 65.7228C27.421 64.665 16.8315 60.7369 16.8315 43.2104C16.8315 38.2246 18.633 34.1454 21.4874 30.9729C21.037 29.84 19.4594 25.1555 21.9387 18.8856C21.9387 18.8856 25.769 17.6767 34.4057 23.5692C38.1033 22.5705 41.9167 22.0624 45.7472 22.0581C49.5776 22.0581 53.4822 22.5875 57.0879 23.5692C65.7255 17.6767 69.5558 18.8856 69.5558 18.8856C72.0351 25.1555 70.4565 29.84 70.0062 30.9729C72.9358 34.1454 74.663 38.2246 74.663 43.2104C74.663 60.7369 64.0735 64.589 53.9335 65.7228C55.5864 67.1579 57.0127 69.8771 57.0127 74.1834C57.0127 80.3021 56.9384 85.2129 56.9384 86.7231C56.9384 87.932 57.7648 89.3681 60.0175 88.9147C78.043 82.8701 91.0365 65.7979 91.0365 45.6283C91.1107 20.3958 70.7574 0 45.7472 0Z" fill="black"/>
</g>
<defs>
<clipPath id="clip0_293_36">
<rect width="91" height="89" fill="white"/>
</clipPath>
</defs>
</svg>
