<svg width="233" height="204" viewBox="0 0 233 204" fill="none" xmlns="http://www.w3.org/2000/svg">
<path d="M225.515 46.1081C224.556 43.6032 221.676 42.4458 219.373 43.4093C217.646 44.1809 216.494 45.9161 216.494 47.6513C216.494 48.2291 216.494 48.8078 216.878 49.1927C221.293 60.9533 223.787 73.6765 223.787 87.1714C223.787 141.73 183.291 187.035 130.703 193.782V143.465C133.965 142.887 137.036 141.922 140.107 140.96V183.179C182.907 172.768 214.958 133.826 214.958 87.1714C214.958 49.9643 194.422 17.3832 164.098 0.610897C161.796 -0.738497 158.916 0.226008 157.764 2.73189C157.381 3.3106 157.381 4.08129 157.381 4.85289C157.381 6.58717 158.34 8.12947 159.683 8.90107C187.129 24.1311 205.746 53.6276 205.746 87.3643C205.746 125.343 182.331 157.731 149.127 170.84V133.44C154.886 131.705 159.108 126.307 159.108 119.752C159.108 114.355 156.421 109.92 152.007 107.414C155.269 75.0259 170.048 83.7019 170.048 73.2916V67.3145C170.048 51.8915 134.541 1.57449 117.843 0.417996H114.773C98.0748 1.5754 62.5687 51.8915 62.5687 67.3145V73.2907C62.5687 83.5081 77.1549 75.025 80.6098 107.413C76.3867 109.919 73.6999 114.546 73.6999 119.752C73.6999 126.114 77.923 131.511 83.6807 133.439V170.84C50.6693 157.73 27.0617 125.342 27.0617 87.3634C27.0617 53.6267 45.6789 24.1302 73.1247 8.90016C75.2362 7.74367 76.1955 5.04488 75.0433 2.73098C74.469 0.996699 72.7406 0.0331075 71.0131 0.0331075C70.2459 0.0331075 69.4777 0.225094 68.7104 0.610897C38.3858 17.3832 17.8482 49.9643 17.8482 87.1714C17.8482 133.826 49.9002 172.768 93.0835 183.371V141.152C96.1544 142.115 99.2252 143.08 102.488 143.658V193.975C49.9011 187.035 9.40464 141.922 9.40464 87.1714C9.40464 73.8694 11.8994 61.1462 16.3136 49.1927C17.2739 46.8797 16.1225 44.181 13.8189 43.2164C13.2428 43.0245 12.6676 42.8316 12.0914 42.8316C10.1719 42.8316 8.44443 43.9881 7.67717 45.9161C2.68678 58.8323 0 72.7129 0 87.1714C0 150.213 49.517 201.493 111.702 204V144.815C113.429 145.007 116.5 145.007 116.5 145.007C116.5 145.007 119.571 145.007 121.298 144.815V204C183.483 201.493 233 150.213 233 87.1714C232.809 72.7129 230.313 58.8323 225.515 46.1081ZM137.996 112.813C139.724 111.077 142.026 109.92 144.713 109.92C147.401 109.92 149.703 111.077 151.43 112.813C153.158 114.547 154.31 116.861 154.31 119.56C154.31 122.258 153.158 124.572 151.431 126.307C149.703 128.043 147.401 129.199 144.714 129.199C142.026 129.199 139.724 128.043 137.996 126.307C136.269 124.572 135.117 122.258 135.117 119.561C135.117 116.861 136.269 114.547 137.996 112.813ZM95.0039 126.307C93.2765 128.043 90.9738 129.199 88.287 129.199C85.5993 129.199 83.2966 128.043 81.57 126.307C79.6496 124.572 78.6903 122.258 78.6903 119.561C78.6903 116.861 79.8416 114.547 81.5691 112.813C83.2966 111.077 85.5993 109.92 88.2861 109.92C90.9738 109.92 93.2765 111.077 95.0039 112.813C96.7314 114.547 97.8828 116.861 97.8828 119.56C97.6916 122.258 96.7314 124.572 95.0039 126.307Z" fill="#128379"/>
</svg>
