<svg width="467" height="457" viewBox="0 0 467 457" fill="none" xmlns="http://www.w3.org/2000/svg">
<g clip-path="url(#clip0_293_36)">
<path fill-rule="evenodd" clip-rule="evenodd" d="M234.769 0C106.034 0 1.96484 104.729 1.96484 234.293C1.96484 337.861 68.6458 425.529 161.15 456.557C172.715 458.89 176.952 451.516 176.952 445.313C176.952 439.882 176.57 421.264 176.57 401.865C111.81 415.832 98.3241 373.936 98.3241 373.936C87.9167 346.782 72.4961 339.803 72.4961 339.803C51.3001 325.451 74.0401 325.451 74.0401 325.451C97.5521 327.003 109.89 349.5 109.89 349.5C130.7 385.184 164.233 375.102 177.724 368.894C179.649 353.766 185.82 343.293 192.372 337.475C140.721 332.044 86.3775 311.874 86.3775 221.878C86.3775 196.277 95.6222 175.331 110.271 159.041C107.96 153.224 99.8633 129.169 112.587 96.9745C112.587 96.9745 132.244 90.7669 176.566 121.024C195.542 115.896 215.111 113.287 234.769 113.265C254.426 113.265 274.464 115.983 292.968 121.024C337.295 90.7669 356.952 96.9745 356.952 96.9745C369.675 129.169 361.574 153.224 359.263 159.041C374.297 175.331 383.161 196.277 383.161 221.878C383.161 311.874 328.817 331.653 276.78 337.475C285.262 344.845 292.582 358.807 292.582 380.919C292.582 412.338 292.201 437.554 292.201 445.308C292.201 451.516 296.442 458.89 308.002 456.562C400.506 425.524 467.187 337.861 467.187 234.293C467.569 104.729 363.118 0 234.769 0Z" fill="black"/>
</g>
<defs>
<clipPath id="clip0_293_36">
<rect width="467" height="457" fill="white"/>
</clipPath>
</defs>
</svg>
